<mxfile host="Electron" modified="2023-11-10T15:05:57.152Z" agent="Mozilla/5.0 (Macintosh; Intel Mac OS X 10_15_6) AppleWebKit/537.36 (KHTML, like Gecko) draw.io/22.0.3 Chrome/114.0.5735.289 Electron/25.8.4 Safari/537.36" etag="dVtTm1MW3fRlxC16ecXa" version="22.0.3" type="device">
  <diagram name="Page-1" id="RLXPpX8xVAkYoWyRRaVe">
    <mxGraphModel dx="2196" dy="1244" grid="1" gridSize="10" guides="1" tooltips="1" connect="1" arrows="1" fold="1" page="1" pageScale="1" pageWidth="2336" pageHeight="1654" math="0" shadow="0">
      <root>
        <mxCell id="0" />
        <mxCell id="1" parent="0" />
        <mxCell id="si1NSZ1jjE3bFnQ1OEnJ-4" value="" style="edgeStyle=orthogonalEdgeStyle;rounded=0;orthogonalLoop=1;jettySize=auto;html=1;" edge="1" parent="1" source="si1NSZ1jjE3bFnQ1OEnJ-2" target="si1NSZ1jjE3bFnQ1OEnJ-3">
          <mxGeometry relative="1" as="geometry" />
        </mxCell>
        <mxCell id="si1NSZ1jjE3bFnQ1OEnJ-2" value="Sentinel" style="shape=cylinder3;whiteSpace=wrap;html=1;boundedLbl=1;backgroundOutline=1;size=15;" vertex="1" parent="1">
          <mxGeometry x="70" y="280" width="60" height="80" as="geometry" />
        </mxCell>
        <mxCell id="si1NSZ1jjE3bFnQ1OEnJ-5" style="edgeStyle=orthogonalEdgeStyle;rounded=0;orthogonalLoop=1;jettySize=auto;html=1;" edge="1" parent="1" source="si1NSZ1jjE3bFnQ1OEnJ-3" target="si1NSZ1jjE3bFnQ1OEnJ-8">
          <mxGeometry relative="1" as="geometry">
            <mxPoint x="340" y="320" as="targetPoint" />
          </mxGeometry>
        </mxCell>
        <mxCell id="si1NSZ1jjE3bFnQ1OEnJ-3" value="GEE" style="rhombus;whiteSpace=wrap;html=1;" vertex="1" parent="1">
          <mxGeometry x="200" y="280" width="80" height="80" as="geometry" />
        </mxCell>
        <mxCell id="si1NSZ1jjE3bFnQ1OEnJ-11" style="edgeStyle=orthogonalEdgeStyle;rounded=0;orthogonalLoop=1;jettySize=auto;html=1;entryX=0;entryY=0.5;entryDx=0;entryDy=0;" edge="1" parent="1" source="si1NSZ1jjE3bFnQ1OEnJ-6" target="si1NSZ1jjE3bFnQ1OEnJ-10">
          <mxGeometry relative="1" as="geometry" />
        </mxCell>
        <mxCell id="si1NSZ1jjE3bFnQ1OEnJ-6" value="Cálculo severidad" style="rhombus;whiteSpace=wrap;html=1;rounded=0;" vertex="1" parent="1">
          <mxGeometry x="540" y="180" width="80" height="80" as="geometry" />
        </mxCell>
        <mxCell id="si1NSZ1jjE3bFnQ1OEnJ-12" value="" style="edgeStyle=orthogonalEdgeStyle;rounded=0;orthogonalLoop=1;jettySize=auto;html=1;" edge="1" parent="1" source="si1NSZ1jjE3bFnQ1OEnJ-8" target="si1NSZ1jjE3bFnQ1OEnJ-6">
          <mxGeometry relative="1" as="geometry">
            <Array as="points">
              <mxPoint x="400" y="220" />
            </Array>
          </mxGeometry>
        </mxCell>
        <mxCell id="si1NSZ1jjE3bFnQ1OEnJ-13" style="edgeStyle=orthogonalEdgeStyle;rounded=0;orthogonalLoop=1;jettySize=auto;html=1;entryX=0;entryY=0.5;entryDx=0;entryDy=0;exitX=0.5;exitY=1;exitDx=0;exitDy=0;" edge="1" parent="1" source="si1NSZ1jjE3bFnQ1OEnJ-8" target="si1NSZ1jjE3bFnQ1OEnJ-14">
          <mxGeometry relative="1" as="geometry">
            <mxPoint x="440" y="460" as="targetPoint" />
          </mxGeometry>
        </mxCell>
        <mxCell id="si1NSZ1jjE3bFnQ1OEnJ-8" value="Cálculo de índice NBR (Normalized Burn Ratio)" style="shape=parallelogram;perimeter=parallelogramPerimeter;whiteSpace=wrap;html=1;fixedSize=1;" vertex="1" parent="1">
          <mxGeometry x="340" y="290" width="120" height="60" as="geometry" />
        </mxCell>
        <mxCell id="si1NSZ1jjE3bFnQ1OEnJ-52" value="" style="edgeStyle=orthogonalEdgeStyle;rounded=0;orthogonalLoop=1;jettySize=auto;html=1;" edge="1" parent="1" source="si1NSZ1jjE3bFnQ1OEnJ-10" target="si1NSZ1jjE3bFnQ1OEnJ-51">
          <mxGeometry relative="1" as="geometry" />
        </mxCell>
        <mxCell id="si1NSZ1jjE3bFnQ1OEnJ-67" style="rounded=0;orthogonalLoop=1;jettySize=auto;html=1;exitX=1;exitY=0.75;exitDx=0;exitDy=0;elbow=vertical;entryX=0;entryY=0.5;entryDx=0;entryDy=0;" edge="1" parent="1" source="si1NSZ1jjE3bFnQ1OEnJ-10" target="si1NSZ1jjE3bFnQ1OEnJ-64">
          <mxGeometry relative="1" as="geometry">
            <mxPoint x="1000" y="370" as="targetPoint" />
          </mxGeometry>
        </mxCell>
        <mxCell id="si1NSZ1jjE3bFnQ1OEnJ-10" value="Mapa de severidad del incendio" style="shape=parallelogram;perimeter=parallelogramPerimeter;whiteSpace=wrap;html=1;fixedSize=1;" vertex="1" parent="1">
          <mxGeometry x="730" y="190" width="150" height="60" as="geometry" />
        </mxCell>
        <mxCell id="si1NSZ1jjE3bFnQ1OEnJ-14" value="Cálculo límite zona quemada" style="rhombus;whiteSpace=wrap;html=1;rounded=0;" vertex="1" parent="1">
          <mxGeometry x="530" y="390" width="120" height="100" as="geometry" />
        </mxCell>
        <mxCell id="si1NSZ1jjE3bFnQ1OEnJ-15" style="edgeStyle=orthogonalEdgeStyle;rounded=0;orthogonalLoop=1;jettySize=auto;html=1;entryX=0;entryY=0.5;entryDx=0;entryDy=0;" edge="1" parent="1" target="si1NSZ1jjE3bFnQ1OEnJ-16" source="si1NSZ1jjE3bFnQ1OEnJ-14">
          <mxGeometry relative="1" as="geometry">
            <mxPoint x="640" y="440" as="sourcePoint" />
          </mxGeometry>
        </mxCell>
        <mxCell id="si1NSZ1jjE3bFnQ1OEnJ-16" value="Delimitación zona quemada" style="shape=parallelogram;perimeter=parallelogramPerimeter;whiteSpace=wrap;html=1;fixedSize=1;" vertex="1" parent="1">
          <mxGeometry x="730" y="410" width="150" height="60" as="geometry" />
        </mxCell>
        <mxCell id="si1NSZ1jjE3bFnQ1OEnJ-19" value="" style="edgeStyle=orthogonalEdgeStyle;rounded=0;orthogonalLoop=1;jettySize=auto;html=1;" edge="1" parent="1" source="si1NSZ1jjE3bFnQ1OEnJ-17" target="si1NSZ1jjE3bFnQ1OEnJ-18">
          <mxGeometry relative="1" as="geometry" />
        </mxCell>
        <mxCell id="si1NSZ1jjE3bFnQ1OEnJ-26" style="edgeStyle=orthogonalEdgeStyle;rounded=0;orthogonalLoop=1;jettySize=auto;html=1;entryX=0;entryY=0.5;entryDx=0;entryDy=0;" edge="1" parent="1" source="si1NSZ1jjE3bFnQ1OEnJ-17" target="si1NSZ1jjE3bFnQ1OEnJ-24">
          <mxGeometry relative="1" as="geometry" />
        </mxCell>
        <mxCell id="si1NSZ1jjE3bFnQ1OEnJ-17" value="MDE?" style="shape=cylinder3;whiteSpace=wrap;html=1;boundedLbl=1;backgroundOutline=1;size=15;" vertex="1" parent="1">
          <mxGeometry x="70" y="662" width="60" height="80" as="geometry" />
        </mxCell>
        <mxCell id="si1NSZ1jjE3bFnQ1OEnJ-21" style="edgeStyle=orthogonalEdgeStyle;rounded=0;orthogonalLoop=1;jettySize=auto;html=1;" edge="1" parent="1" source="si1NSZ1jjE3bFnQ1OEnJ-18" target="si1NSZ1jjE3bFnQ1OEnJ-20">
          <mxGeometry relative="1" as="geometry">
            <mxPoint x="680" y="560" as="targetPoint" />
            <Array as="points">
              <mxPoint x="490" y="552" />
            </Array>
          </mxGeometry>
        </mxCell>
        <mxCell id="si1NSZ1jjE3bFnQ1OEnJ-23" style="edgeStyle=orthogonalEdgeStyle;rounded=0;orthogonalLoop=1;jettySize=auto;html=1;entryX=0;entryY=0.5;entryDx=0;entryDy=0;" edge="1" parent="1" source="si1NSZ1jjE3bFnQ1OEnJ-18" target="si1NSZ1jjE3bFnQ1OEnJ-22">
          <mxGeometry relative="1" as="geometry" />
        </mxCell>
        <mxCell id="si1NSZ1jjE3bFnQ1OEnJ-18" value="GEE" style="rhombus;whiteSpace=wrap;html=1;" vertex="1" parent="1">
          <mxGeometry x="450" y="592" width="80" height="80" as="geometry" />
        </mxCell>
        <mxCell id="si1NSZ1jjE3bFnQ1OEnJ-54" style="edgeStyle=orthogonalEdgeStyle;rounded=0;orthogonalLoop=1;jettySize=auto;html=1;" edge="1" parent="1" source="si1NSZ1jjE3bFnQ1OEnJ-20" target="si1NSZ1jjE3bFnQ1OEnJ-51">
          <mxGeometry relative="1" as="geometry">
            <Array as="points">
              <mxPoint x="1310" y="550" />
            </Array>
          </mxGeometry>
        </mxCell>
        <mxCell id="si1NSZ1jjE3bFnQ1OEnJ-69" style="rounded=0;orthogonalLoop=1;jettySize=auto;html=1;entryX=0;entryY=0.5;entryDx=0;entryDy=0;exitX=1;exitY=1;exitDx=0;exitDy=0;" edge="1" parent="1" source="si1NSZ1jjE3bFnQ1OEnJ-20" target="si1NSZ1jjE3bFnQ1OEnJ-64">
          <mxGeometry relative="1" as="geometry" />
        </mxCell>
        <mxCell id="si1NSZ1jjE3bFnQ1OEnJ-20" value="Mapa de pendientes" style="shape=parallelogram;perimeter=parallelogramPerimeter;whiteSpace=wrap;html=1;fixedSize=1;" vertex="1" parent="1">
          <mxGeometry x="730" y="520" width="150" height="60" as="geometry" />
        </mxCell>
        <mxCell id="si1NSZ1jjE3bFnQ1OEnJ-55" style="edgeStyle=orthogonalEdgeStyle;rounded=0;orthogonalLoop=1;jettySize=auto;html=1;exitX=1;exitY=0.5;exitDx=0;exitDy=0;entryX=0;entryY=0.5;entryDx=0;entryDy=0;" edge="1" parent="1" source="si1NSZ1jjE3bFnQ1OEnJ-22" target="si1NSZ1jjE3bFnQ1OEnJ-51">
          <mxGeometry relative="1" as="geometry" />
        </mxCell>
        <mxCell id="si1NSZ1jjE3bFnQ1OEnJ-70" style="rounded=0;orthogonalLoop=1;jettySize=auto;html=1;entryX=0;entryY=0.5;entryDx=0;entryDy=0;" edge="1" parent="1" source="si1NSZ1jjE3bFnQ1OEnJ-22" target="si1NSZ1jjE3bFnQ1OEnJ-64">
          <mxGeometry relative="1" as="geometry" />
        </mxCell>
        <mxCell id="si1NSZ1jjE3bFnQ1OEnJ-22" value="Mapa de orientaciones" style="shape=parallelogram;perimeter=parallelogramPerimeter;whiteSpace=wrap;html=1;fixedSize=1;" vertex="1" parent="1">
          <mxGeometry x="730" y="602" width="150" height="60" as="geometry" />
        </mxCell>
        <mxCell id="si1NSZ1jjE3bFnQ1OEnJ-28" style="edgeStyle=orthogonalEdgeStyle;rounded=0;orthogonalLoop=1;jettySize=auto;html=1;entryX=0;entryY=0.5;entryDx=0;entryDy=0;" edge="1" parent="1" source="si1NSZ1jjE3bFnQ1OEnJ-24" target="si1NSZ1jjE3bFnQ1OEnJ-27">
          <mxGeometry relative="1" as="geometry" />
        </mxCell>
        <mxCell id="si1NSZ1jjE3bFnQ1OEnJ-24" value="SAGA" style="rhombus;whiteSpace=wrap;html=1;" vertex="1" parent="1">
          <mxGeometry x="450" y="722" width="80" height="80" as="geometry" />
        </mxCell>
        <mxCell id="si1NSZ1jjE3bFnQ1OEnJ-57" style="edgeStyle=orthogonalEdgeStyle;rounded=0;orthogonalLoop=1;jettySize=auto;html=1;entryX=0;entryY=0.5;entryDx=0;entryDy=0;" edge="1" parent="1" source="si1NSZ1jjE3bFnQ1OEnJ-27" target="si1NSZ1jjE3bFnQ1OEnJ-51">
          <mxGeometry relative="1" as="geometry" />
        </mxCell>
        <mxCell id="si1NSZ1jjE3bFnQ1OEnJ-71" style="rounded=0;orthogonalLoop=1;jettySize=auto;html=1;entryX=0;entryY=0.5;entryDx=0;entryDy=0;" edge="1" parent="1" source="si1NSZ1jjE3bFnQ1OEnJ-27" target="si1NSZ1jjE3bFnQ1OEnJ-64">
          <mxGeometry relative="1" as="geometry">
            <mxPoint x="1500" y="790" as="targetPoint" />
          </mxGeometry>
        </mxCell>
        <mxCell id="si1NSZ1jjE3bFnQ1OEnJ-27" value="Mapa de insolación" style="shape=parallelogram;perimeter=parallelogramPerimeter;whiteSpace=wrap;html=1;fixedSize=1;" vertex="1" parent="1">
          <mxGeometry x="730" y="732" width="150" height="60" as="geometry" />
        </mxCell>
        <mxCell id="si1NSZ1jjE3bFnQ1OEnJ-29" value="" style="edgeStyle=orthogonalEdgeStyle;rounded=0;orthogonalLoop=1;jettySize=auto;html=1;" edge="1" parent="1" source="si1NSZ1jjE3bFnQ1OEnJ-30" target="si1NSZ1jjE3bFnQ1OEnJ-31">
          <mxGeometry relative="1" as="geometry" />
        </mxCell>
        <mxCell id="si1NSZ1jjE3bFnQ1OEnJ-30" value="Sentinel" style="shape=cylinder3;whiteSpace=wrap;html=1;boundedLbl=1;backgroundOutline=1;size=15;" vertex="1" parent="1">
          <mxGeometry x="70" y="900" width="60" height="80" as="geometry" />
        </mxCell>
        <mxCell id="si1NSZ1jjE3bFnQ1OEnJ-33" style="edgeStyle=orthogonalEdgeStyle;rounded=0;orthogonalLoop=1;jettySize=auto;html=1;entryX=0;entryY=0.5;entryDx=0;entryDy=0;" edge="1" parent="1" source="si1NSZ1jjE3bFnQ1OEnJ-31" target="si1NSZ1jjE3bFnQ1OEnJ-32">
          <mxGeometry relative="1" as="geometry" />
        </mxCell>
        <mxCell id="si1NSZ1jjE3bFnQ1OEnJ-31" value="GEE" style="rhombus;whiteSpace=wrap;html=1;" vertex="1" parent="1">
          <mxGeometry x="450" y="900" width="80" height="80" as="geometry" />
        </mxCell>
        <mxCell id="si1NSZ1jjE3bFnQ1OEnJ-58" style="edgeStyle=orthogonalEdgeStyle;rounded=0;orthogonalLoop=1;jettySize=auto;html=1;entryX=0;entryY=0.5;entryDx=0;entryDy=0;" edge="1" parent="1" source="si1NSZ1jjE3bFnQ1OEnJ-32" target="si1NSZ1jjE3bFnQ1OEnJ-51">
          <mxGeometry relative="1" as="geometry" />
        </mxCell>
        <mxCell id="si1NSZ1jjE3bFnQ1OEnJ-72" style="rounded=0;orthogonalLoop=1;jettySize=auto;html=1;entryX=0;entryY=0.5;entryDx=0;entryDy=0;" edge="1" parent="1" source="si1NSZ1jjE3bFnQ1OEnJ-32" target="si1NSZ1jjE3bFnQ1OEnJ-64">
          <mxGeometry relative="1" as="geometry" />
        </mxCell>
        <mxCell id="si1NSZ1jjE3bFnQ1OEnJ-32" value="Tendencia de NDVI?" style="shape=parallelogram;perimeter=parallelogramPerimeter;whiteSpace=wrap;html=1;fixedSize=1;" vertex="1" parent="1">
          <mxGeometry x="730" y="910" width="150" height="60" as="geometry" />
        </mxCell>
        <mxCell id="si1NSZ1jjE3bFnQ1OEnJ-34" value="" style="edgeStyle=orthogonalEdgeStyle;rounded=0;orthogonalLoop=1;jettySize=auto;html=1;" edge="1" parent="1" source="si1NSZ1jjE3bFnQ1OEnJ-35" target="si1NSZ1jjE3bFnQ1OEnJ-37">
          <mxGeometry relative="1" as="geometry" />
        </mxCell>
        <mxCell id="si1NSZ1jjE3bFnQ1OEnJ-35" value="Sentinel" style="shape=cylinder3;whiteSpace=wrap;html=1;boundedLbl=1;backgroundOutline=1;size=15;" vertex="1" parent="1">
          <mxGeometry x="70" y="1080" width="60" height="80" as="geometry" />
        </mxCell>
        <mxCell id="si1NSZ1jjE3bFnQ1OEnJ-36" style="edgeStyle=orthogonalEdgeStyle;rounded=0;orthogonalLoop=1;jettySize=auto;html=1;entryX=0;entryY=0.5;entryDx=0;entryDy=0;" edge="1" parent="1" source="si1NSZ1jjE3bFnQ1OEnJ-37" target="si1NSZ1jjE3bFnQ1OEnJ-38">
          <mxGeometry relative="1" as="geometry" />
        </mxCell>
        <mxCell id="si1NSZ1jjE3bFnQ1OEnJ-37" value="GEE" style="rhombus;whiteSpace=wrap;html=1;" vertex="1" parent="1">
          <mxGeometry x="450" y="1080" width="80" height="80" as="geometry" />
        </mxCell>
        <mxCell id="si1NSZ1jjE3bFnQ1OEnJ-59" style="edgeStyle=orthogonalEdgeStyle;rounded=0;orthogonalLoop=1;jettySize=auto;html=1;entryX=0.5;entryY=1;entryDx=0;entryDy=0;" edge="1" parent="1" source="si1NSZ1jjE3bFnQ1OEnJ-38" target="si1NSZ1jjE3bFnQ1OEnJ-51">
          <mxGeometry relative="1" as="geometry" />
        </mxCell>
        <mxCell id="si1NSZ1jjE3bFnQ1OEnJ-73" style="rounded=0;orthogonalLoop=1;jettySize=auto;html=1;entryX=0;entryY=0.5;entryDx=0;entryDy=0;exitX=1;exitY=0.5;exitDx=0;exitDy=0;" edge="1" parent="1" source="si1NSZ1jjE3bFnQ1OEnJ-38" target="si1NSZ1jjE3bFnQ1OEnJ-64">
          <mxGeometry relative="1" as="geometry" />
        </mxCell>
        <mxCell id="si1NSZ1jjE3bFnQ1OEnJ-38" value="Moisture strees index (MSI)" style="shape=parallelogram;perimeter=parallelogramPerimeter;whiteSpace=wrap;html=1;fixedSize=1;" vertex="1" parent="1">
          <mxGeometry x="700" y="1090" width="180" height="60" as="geometry" />
        </mxCell>
        <mxCell id="si1NSZ1jjE3bFnQ1OEnJ-39" value="" style="edgeStyle=orthogonalEdgeStyle;rounded=0;orthogonalLoop=1;jettySize=auto;html=1;" edge="1" parent="1" source="si1NSZ1jjE3bFnQ1OEnJ-40" target="si1NSZ1jjE3bFnQ1OEnJ-42">
          <mxGeometry relative="1" as="geometry" />
        </mxCell>
        <mxCell id="si1NSZ1jjE3bFnQ1OEnJ-40" value="GBIF" style="shape=cylinder3;whiteSpace=wrap;html=1;boundedLbl=1;backgroundOutline=1;size=15;" vertex="1" parent="1">
          <mxGeometry x="70" y="1270" width="60" height="80" as="geometry" />
        </mxCell>
        <mxCell id="si1NSZ1jjE3bFnQ1OEnJ-41" style="edgeStyle=orthogonalEdgeStyle;rounded=0;orthogonalLoop=1;jettySize=auto;html=1;entryX=0;entryY=0.5;entryDx=0;entryDy=0;" edge="1" parent="1" source="si1NSZ1jjE3bFnQ1OEnJ-42" target="si1NSZ1jjE3bFnQ1OEnJ-43">
          <mxGeometry relative="1" as="geometry" />
        </mxCell>
        <mxCell id="si1NSZ1jjE3bFnQ1OEnJ-42" value="R y QGIS" style="rhombus;whiteSpace=wrap;html=1;" vertex="1" parent="1">
          <mxGeometry x="450" y="1270" width="80" height="80" as="geometry" />
        </mxCell>
        <mxCell id="si1NSZ1jjE3bFnQ1OEnJ-60" style="edgeStyle=orthogonalEdgeStyle;rounded=0;orthogonalLoop=1;jettySize=auto;html=1;entryX=0.5;entryY=1;entryDx=0;entryDy=0;" edge="1" parent="1" source="si1NSZ1jjE3bFnQ1OEnJ-43" target="si1NSZ1jjE3bFnQ1OEnJ-51">
          <mxGeometry relative="1" as="geometry">
            <mxPoint x="1310" y="800" as="targetPoint" />
          </mxGeometry>
        </mxCell>
        <mxCell id="si1NSZ1jjE3bFnQ1OEnJ-74" style="rounded=0;orthogonalLoop=1;jettySize=auto;html=1;exitX=1;exitY=0.5;exitDx=0;exitDy=0;entryX=0;entryY=0.5;entryDx=0;entryDy=0;" edge="1" parent="1" source="si1NSZ1jjE3bFnQ1OEnJ-43" target="si1NSZ1jjE3bFnQ1OEnJ-64">
          <mxGeometry relative="1" as="geometry">
            <mxPoint x="1500" y="790" as="targetPoint" />
          </mxGeometry>
        </mxCell>
        <mxCell id="si1NSZ1jjE3bFnQ1OEnJ-43" value="Mapa de biodiversidad" style="shape=parallelogram;perimeter=parallelogramPerimeter;whiteSpace=wrap;html=1;fixedSize=1;" vertex="1" parent="1">
          <mxGeometry x="700" y="1280" width="180" height="60" as="geometry" />
        </mxCell>
        <mxCell id="si1NSZ1jjE3bFnQ1OEnJ-44" value="" style="edgeStyle=orthogonalEdgeStyle;rounded=0;orthogonalLoop=1;jettySize=auto;html=1;exitX=1;exitY=0.5;exitDx=0;exitDy=0;" edge="1" parent="1" source="si1NSZ1jjE3bFnQ1OEnJ-49" target="si1NSZ1jjE3bFnQ1OEnJ-47">
          <mxGeometry relative="1" as="geometry">
            <mxPoint x="230" y="1500" as="sourcePoint" />
          </mxGeometry>
        </mxCell>
        <mxCell id="si1NSZ1jjE3bFnQ1OEnJ-46" style="edgeStyle=orthogonalEdgeStyle;rounded=0;orthogonalLoop=1;jettySize=auto;html=1;entryX=0;entryY=0.5;entryDx=0;entryDy=0;" edge="1" parent="1" source="si1NSZ1jjE3bFnQ1OEnJ-47" target="si1NSZ1jjE3bFnQ1OEnJ-48">
          <mxGeometry relative="1" as="geometry" />
        </mxCell>
        <mxCell id="si1NSZ1jjE3bFnQ1OEnJ-47" value="QGIS" style="rhombus;whiteSpace=wrap;html=1;" vertex="1" parent="1">
          <mxGeometry x="450" y="1460" width="80" height="80" as="geometry" />
        </mxCell>
        <mxCell id="si1NSZ1jjE3bFnQ1OEnJ-61" style="edgeStyle=orthogonalEdgeStyle;rounded=0;orthogonalLoop=1;jettySize=auto;html=1;entryX=0.5;entryY=1;entryDx=0;entryDy=0;" edge="1" parent="1" source="si1NSZ1jjE3bFnQ1OEnJ-48" target="si1NSZ1jjE3bFnQ1OEnJ-51">
          <mxGeometry relative="1" as="geometry" />
        </mxCell>
        <mxCell id="si1NSZ1jjE3bFnQ1OEnJ-75" style="rounded=0;orthogonalLoop=1;jettySize=auto;html=1;entryX=0;entryY=0.5;entryDx=0;entryDy=0;exitX=1;exitY=0.5;exitDx=0;exitDy=0;" edge="1" parent="1" source="si1NSZ1jjE3bFnQ1OEnJ-48" target="si1NSZ1jjE3bFnQ1OEnJ-64">
          <mxGeometry relative="1" as="geometry" />
        </mxCell>
        <mxCell id="si1NSZ1jjE3bFnQ1OEnJ-48" value="Mapa de distancias a carreteras" style="shape=parallelogram;perimeter=parallelogramPerimeter;whiteSpace=wrap;html=1;fixedSize=1;" vertex="1" parent="1">
          <mxGeometry x="710" y="1470" width="170" height="60" as="geometry" />
        </mxCell>
        <mxCell id="si1NSZ1jjE3bFnQ1OEnJ-49" value="Mapa de carreteras" style="shape=parallelogram;perimeter=parallelogramPerimeter;whiteSpace=wrap;html=1;fixedSize=1;" vertex="1" parent="1">
          <mxGeometry x="60" y="1470" width="180" height="60" as="geometry" />
        </mxCell>
        <mxCell id="si1NSZ1jjE3bFnQ1OEnJ-63" style="edgeStyle=orthogonalEdgeStyle;rounded=0;orthogonalLoop=1;jettySize=auto;html=1;" edge="1" parent="1" source="si1NSZ1jjE3bFnQ1OEnJ-51" target="si1NSZ1jjE3bFnQ1OEnJ-62">
          <mxGeometry relative="1" as="geometry" />
        </mxCell>
        <mxCell id="si1NSZ1jjE3bFnQ1OEnJ-51" value="Clasificación no supervisada (R)" style="rhombus;whiteSpace=wrap;html=1;" vertex="1" parent="1">
          <mxGeometry x="1250" y="587" width="120" height="90" as="geometry" />
        </mxCell>
        <mxCell id="si1NSZ1jjE3bFnQ1OEnJ-62" value="Mapa de zonas homogéneas" style="shape=parallelogram;perimeter=parallelogramPerimeter;whiteSpace=wrap;html=1;fixedSize=1;" vertex="1" parent="1">
          <mxGeometry x="1800" y="602" width="120" height="60" as="geometry" />
        </mxCell>
        <mxCell id="si1NSZ1jjE3bFnQ1OEnJ-77" style="edgeStyle=orthogonalEdgeStyle;rounded=0;orthogonalLoop=1;jettySize=auto;html=1;entryX=0;entryY=0.5;entryDx=0;entryDy=0;" edge="1" parent="1" source="si1NSZ1jjE3bFnQ1OEnJ-64" target="si1NSZ1jjE3bFnQ1OEnJ-76">
          <mxGeometry relative="1" as="geometry" />
        </mxCell>
        <mxCell id="si1NSZ1jjE3bFnQ1OEnJ-64" value="Evaluación multicriterio (Qgis)" style="rhombus;whiteSpace=wrap;html=1;" vertex="1" parent="1">
          <mxGeometry x="1520" y="802" width="120" height="90" as="geometry" />
        </mxCell>
        <mxCell id="si1NSZ1jjE3bFnQ1OEnJ-76" value="Mapa de zonas homogéneas" style="shape=parallelogram;perimeter=parallelogramPerimeter;whiteSpace=wrap;html=1;fixedSize=1;" vertex="1" parent="1">
          <mxGeometry x="1800" y="817" width="120" height="60" as="geometry" />
        </mxCell>
        <mxCell id="si1NSZ1jjE3bFnQ1OEnJ-78" value="Generalidades de GEE" style="text;html=1;strokeColor=#d6b656;fillColor=#fff2cc;align=center;verticalAlign=middle;whiteSpace=wrap;overflow=hidden;" vertex="1" parent="1">
          <mxGeometry x="150" y="240" width="140" height="20" as="geometry" />
        </mxCell>
        <mxCell id="si1NSZ1jjE3bFnQ1OEnJ-79" value="Combinación de índices espectrales" style="text;html=1;strokeColor=#d6b656;fillColor=#fff2cc;align=center;verticalAlign=middle;whiteSpace=wrap;overflow=hidden;" vertex="1" parent="1">
          <mxGeometry x="470" y="140" width="140" height="30" as="geometry" />
        </mxCell>
        <mxCell id="si1NSZ1jjE3bFnQ1OEnJ-80" value="Concepto de pendiente como derivada de la altitud" style="text;html=1;strokeColor=#d6b656;fillColor=#fff2cc;align=center;verticalAlign=middle;whiteSpace=wrap;overflow=hidden;" vertex="1" parent="1">
          <mxGeometry x="890" y="480" width="140" height="50" as="geometry" />
        </mxCell>
        <mxCell id="si1NSZ1jjE3bFnQ1OEnJ-81" value="Concepto de orientación de un punto..." style="text;html=1;strokeColor=#d6b656;fillColor=#fff2cc;align=center;verticalAlign=middle;whiteSpace=wrap;overflow=hidden;" vertex="1" parent="1">
          <mxGeometry x="870" y="650" width="140" height="50" as="geometry" />
        </mxCell>
        <mxCell id="si1NSZ1jjE3bFnQ1OEnJ-82" value="Ocultamiento topográfico.&lt;br&gt;Colinealidad de variables" style="text;html=1;strokeColor=#d6b656;fillColor=#fff2cc;align=center;verticalAlign=middle;whiteSpace=wrap;overflow=hidden;" vertex="1" parent="1">
          <mxGeometry x="880" y="780" width="140" height="50" as="geometry" />
        </mxCell>
        <mxCell id="si1NSZ1jjE3bFnQ1OEnJ-83" value="Generalidades de SAGA" style="text;html=1;strokeColor=#d6b656;fillColor=#fff2cc;align=center;verticalAlign=middle;whiteSpace=wrap;overflow=hidden;" vertex="1" parent="1">
          <mxGeometry x="510" y="704" width="140" height="28" as="geometry" />
        </mxCell>
        <mxCell id="si1NSZ1jjE3bFnQ1OEnJ-85" value="Espacialización de la producción primaria" style="text;html=1;strokeColor=#d6b656;fillColor=#fff2cc;align=center;verticalAlign=middle;whiteSpace=wrap;overflow=hidden;" vertex="1" parent="1">
          <mxGeometry x="870" y="960" width="140" height="40" as="geometry" />
        </mxCell>
        <mxCell id="si1NSZ1jjE3bFnQ1OEnJ-86" value="Combinación de índices espectrales" style="text;html=1;strokeColor=#d6b656;fillColor=#fff2cc;align=center;verticalAlign=middle;whiteSpace=wrap;overflow=hidden;" vertex="1" parent="1">
          <mxGeometry x="870" y="1140" width="140" height="30" as="geometry" />
        </mxCell>
        <mxCell id="si1NSZ1jjE3bFnQ1OEnJ-87" value="Espacialización de una variable escalo-dependiente" style="text;html=1;strokeColor=#d6b656;fillColor=#fff2cc;align=center;verticalAlign=middle;whiteSpace=wrap;overflow=hidden;" vertex="1" parent="1">
          <mxGeometry x="870" y="1320" width="140" height="50" as="geometry" />
        </mxCell>
        <mxCell id="si1NSZ1jjE3bFnQ1OEnJ-90" value="Estratificación del territorio sin asignación de pesos a las variables" style="text;html=1;strokeColor=#d6b656;fillColor=#fff2cc;align=center;verticalAlign=middle;whiteSpace=wrap;overflow=hidden;" vertex="1" parent="1">
          <mxGeometry x="1360" y="570" width="140" height="50" as="geometry" />
        </mxCell>
        <mxCell id="si1NSZ1jjE3bFnQ1OEnJ-91" value="Estratificación del territorio asignando pesos a las variables" style="text;html=1;strokeColor=#d6b656;fillColor=#fff2cc;align=center;verticalAlign=middle;whiteSpace=wrap;overflow=hidden;" vertex="1" parent="1">
          <mxGeometry x="1620" y="767" width="140" height="50" as="geometry" />
        </mxCell>
      </root>
    </mxGraphModel>
  </diagram>
</mxfile>
